<svg width="900" height="1000" xmlns="http://www.w3.org/2000/svg">
  <rect width="100%" height="100%" fill="#F0D9B5"/>
  
  <line x1="50" y1="50" x2="50" y2="950" stroke="#B58863" stroke-width="3"/>
  <line x1="150" y1="50" x2="150" y2="950" stroke="#B58863" stroke-width="3"/>
  <line x1="250" y1="50" x2="250" y2="950" stroke="#B58863" stroke-width="3"/>
  <line x1="350" y1="50" x2="350" y2="950" stroke="#B58863" stroke-width="3"/>
  <line x1="450" y1="50" x2="450" y2="950" stroke="#B58863" stroke-width="3"/>
  <line x1="550" y1="50" x2="550" y2="950" stroke="#B58863" stroke-width="3"/>
  <line x1="650" y1="50" x2="650" y2="950" stroke="#B58863" stroke-width="3"/>
  <line x1="750" y1="50" x2="750" y2="950" stroke="#B58863" stroke-width="3"/>
  <line x1="850" y1="50" x2="850" y2="950" stroke="#B58863" stroke-width="3"/>
  
  <line x1="50" y1="50" x2="850" y2="50" stroke="#B58863" stroke-width="3"/>
  <line x1="50" y1="150" x2="850" y2="150" stroke="#B58863" stroke-width="3"/>
  <line x1="50" y1="250" x2="850" y2="250" stroke="#B58863" stroke-width="3"/>
  <line x1="50" y1="350" x2="850" y2="350" stroke="#B58863" stroke-width="3"/>
  <line x1="50" y1="450" x2="850" y2="450" stroke="#B58863" stroke-width="3"/>
  <line x1="50" y1="550" x2="850" y2="550" stroke="#B58863" stroke-width="3"/>
  <line x1="50" y1="650" x2="850" y2="650" stroke="#B58863" stroke-width="3"/>
  <line x1="50" y1="750" x2="850" y2="750" stroke="#B58863" stroke-width="3"/>
  <line x1="50" y1="850" x2="850" y2="850" stroke="#B58863" stroke-width="3"/>
  <line x1="50" y1="950" x2="850" y2="950" stroke="#B58863" stroke-width="3"/>

  <line x1="350" y1="50" x2="550" y2="250" stroke="#B58863" stroke-width="2"/>
  <line x1="550" y1="50" x2="350" y2="250" stroke="#B58863" stroke-width="2"/>
  <line x1="350" y1="750" x2="550" y2="950" stroke="#B58863" stroke-width="2"/>
  <line x1="550" y1="750" x2="350" y2="950" stroke="#B58863" stroke-width="2"/>

  <text x="150" y="515" font-family="KaiTi, STKaiti" font-size="60" fill="#8B4513">楚 河</text>
  <text x="600" y="515" font-family="KaiTi, STKaiti" font-size="60" fill="#8B4513">漢 界</text>
</svg>